<svg width="30" height="30" viewBox="0 0 30 30" fill="none" xmlns="http://www.w3.org/2000/svg">
<path d="M15 22.5C20 22.5 21.25 17.5 21.25 17.5H8.75C8.75 17.5 10 22.5 15 22.5Z" fill="#1F6F5B"/>
<path d="M15 2.5C8.1125 2.5 2.5 8.1125 2.5 15C2.5 21.8875 8.1125 27.5 15 27.5C21.8875 27.5 27.5 21.8875 27.5 15C27.5 8.1125 21.8875 2.5 15 2.5ZM15 25C9.4875 25 5 20.5125 5 15C5 9.4875 9.4875 5 15 5C20.5125 5 25 9.4875 25 15C25 20.5125 20.5125 25 15 25Z" fill="#1F6F5B"/>
<path d="M10 12.5C10.6875 12.5 11.25 13.0625 11.25 13.75H13.75C13.75 11.6875 12.0625 10 10 10C7.9375 10 6.25 11.6875 6.25 13.75H8.75C8.75 13.0625 9.3125 12.5 10 12.5ZM16.25 13.75H18.75C18.75 13.0625 19.3125 12.5 20 12.5C20.6875 12.5 21.25 13.0625 21.25 13.75H23.75C23.75 11.6875 22.0625 10 20 10C17.9375 10 16.25 11.6875 16.25 13.75Z" fill="#1F6F5B"/>
</svg>
