<svg preserveAspectRatio="none" overflow="visible" style="display: block;" width="73" height="73" viewBox="0 0 73 73" fill="none" xmlns="http://www.w3.org/2000/svg">
<g id="openmoji:person-in-tuxedo-light-skin-tone">
<path id="Vector" d="M56.646 61.8046H16.354C16.1122 61.8043 15.8785 61.7176 15.695 61.5602C15.5115 61.4027 15.3903 61.1848 15.3533 60.9459C15.3097 60.66 14.3222 53.9125 18.0878 49.5234C20.1237 47.1519 23.1197 45.9494 26.9928 45.9494C27.193 45.9494 27.3888 46.0087 27.5555 46.1198C30.9175 48.3605 33.5922 49.7566 36.5 49.7698C39.4078 49.7556 42.0815 48.3605 45.4455 46.1198C45.6119 46.0089 45.8073 45.9496 46.0072 45.9494C49.8813 45.9494 52.8773 47.1519 54.9122 49.5244C58.6778 53.9146 57.6903 60.66 57.6477 60.9459C57.6106 61.1852 57.4892 61.4033 57.3052 61.5608C57.1213 61.7183 56.8881 61.8048 56.646 61.8046Z" fill="#3F3F3F"/>
<path id="Vector_2" d="M47.0019 47.159L47.0039 47.1448C47.0052 47.1083 47.0045 47.0718 47.0019 47.0353C47.0346 46.8576 46.9983 46.6742 46.9005 46.5223C46.8866 46.4807 46.87 46.4401 46.8508 46.4006L46.8447 46.3945C46.7826 46.3098 46.7077 46.2352 46.6227 46.1735C46.6014 46.1563 46.5862 46.1299 46.5639 46.1157C46.5547 46.1096 46.5436 46.1086 46.5334 46.1036C46.4299 46.0386 46.3156 45.9929 46.1958 45.9687L46.1887 45.9657C46.1428 45.9632 46.0967 45.9639 46.0508 45.9677C45.8746 45.9398 45.6943 45.9792 45.5459 46.0782C45.5114 46.0899 45.4776 46.1034 45.4445 46.1188C42.0815 48.3605 39.4078 49.7556 36.5 49.7688C33.5983 49.7556 30.9287 48.3655 27.5768 46.133L27.5636 46.1238L27.5555 46.1188C27.5372 46.1076 27.5169 46.1066 27.4987 46.0965C27.338 45.9865 27.142 45.9406 26.9492 45.9677C26.9033 45.9639 26.8572 45.9632 26.8113 45.9657L26.8042 45.9687C26.6254 46.0086 26.4607 46.0962 26.3277 46.2222C26.2643 46.272 26.2071 46.3292 26.1573 46.3925L26.1492 46.3996C26.1241 46.4492 26.103 46.5007 26.0863 46.5537C25.9921 46.7112 25.9606 46.8983 25.9981 47.0779C26.0012 47.1002 25.9931 47.1215 25.9971 47.1438L25.9981 47.1519L26.0022 47.1692C26.2526 48.5379 28.4964 59.644 32.6787 61.6637C32.8158 61.7302 32.9662 61.7648 33.1187 61.7651H39.8509C40.0037 61.765 40.1544 61.7303 40.2919 61.6637C44.4793 59.641 46.7555 48.5095 47.0019 47.1631V47.159Z" fill="white"/>
<path id="Vector_3" d="M40.8181 60.2929L38.7224 57.0961C38.8555 56.9759 38.9821 56.8486 39.1016 56.7149C40.7705 54.679 40.0375 50.7208 39.9482 50.2767L39.9411 50.2585C39.9371 50.2493 39.9422 50.2463 39.9411 50.2392C39.9221 50.1888 39.899 50.14 39.8722 50.0932C39.8482 50.0216 39.8162 49.9529 39.7769 49.8884C39.7455 49.8523 39.7116 49.8184 39.6755 49.787C39.5252 49.641 39.3398 49.5362 39.1371 49.4828L38.7569 49.4808C38.7468 49.4828 38.7387 49.4899 38.7295 49.491C38.7255 49.4923 38.7211 49.4923 38.7164 49.491C37.2618 49.8595 35.7382 49.8595 34.2836 49.491H34.2705L34.2431 49.4808C34.1682 49.4728 34.0928 49.4731 34.018 49.4818C33.9674 49.478 33.9165 49.478 33.8659 49.4818C33.7449 49.5236 33.6255 49.5699 33.508 49.6207C33.4353 49.6714 33.3695 49.7314 33.3123 49.7992C33.2815 49.8265 33.2524 49.8556 33.2251 49.8864C33.1809 49.9568 33.1455 50.0324 33.1197 50.1115C33.0972 50.1526 33.0775 50.1953 33.0609 50.2392L33.0599 50.2554L33.0518 50.2757C32.9625 50.7208 32.2305 54.678 33.8984 56.7139C34.02 56.8467 34.1486 56.973 34.2836 57.0921L32.1818 60.2757C32.0808 60.4198 32.0226 60.5896 32.014 60.7655C32.0054 60.9413 32.0467 61.116 32.1332 61.2693C32.2197 61.4308 32.3483 61.5659 32.5054 61.6602C32.6625 61.7544 32.8422 61.8043 33.0254 61.8046H39.9736C40.1567 61.8044 40.3363 61.7547 40.4934 61.6606C40.6505 61.5665 40.7792 61.4316 40.8658 61.2703C40.9527 61.1201 40.9944 60.948 40.986 60.7746C40.9775 60.6013 40.9192 60.434 40.8181 60.2929Z" fill="black"/>
<path id="Vector_4" d="M36.8265 44.8991L36.6176 44.897C29.5609 44.75 23.9795 37.0262 24.1731 27.6792C24.1695 25.0577 24.5966 22.4535 25.4375 19.9706C25.4924 19.8414 25.5736 19.725 25.6759 19.6289C25.7782 19.5327 25.8993 19.4588 26.0316 19.4119C26.164 19.3648 26.3047 19.3456 26.4449 19.3558C26.585 19.3659 26.7215 19.405 26.8458 19.4707C30.1186 20.9081 33.6552 21.6472 37.2298 21.6409C40.8044 21.6346 44.3383 20.8831 47.6061 19.4342C47.7458 19.3743 47.8972 19.3467 48.0491 19.3532C48.201 19.3597 48.3494 19.4003 48.4835 19.472C48.6175 19.5436 48.7337 19.6445 48.8235 19.7671C48.9133 19.8898 48.9744 20.031 49.0023 20.1804C49.5002 22.8332 49.7565 25.5256 49.7677 28.2246C49.7487 32.466 48.384 36.5918 45.8704 40.0081C44.847 41.4704 43.4967 42.6739 41.9267 43.5229C40.3568 44.372 38.6104 44.8432 36.8265 44.8991Z" fill="#FADCBC"/>
<path id="Vector_5" d="M54.0656 15.549C53.6236 14.5375 52.9133 13.6662 52.0117 13.0293C51.1102 12.3924 50.0516 12.0141 48.9506 11.9355C47.4114 11.8348 45.8783 12.2077 44.5574 13.0041C43.1491 11.4306 39.4565 7.89008 34.5097 7.63053C30.7634 7.43181 27.1357 9.16657 23.7169 12.8379C22.8932 13.7822 21.8432 14.502 20.6654 14.9297C19.4875 15.3575 18.2204 15.4791 16.9826 15.2834C16.8222 15.2548 16.6572 15.2654 16.5016 15.3142C16.3461 15.3631 16.2046 15.4486 16.0892 15.5638C15.9738 15.6789 15.8879 15.8201 15.8387 15.9755C15.7894 16.1309 15.7784 16.2959 15.8065 16.4564C15.8775 16.86 16.4534 19.8317 18.3494 21.2187C17.6583 22.1118 17.2375 23.1842 17.1368 24.309C17.1041 25.0757 17.2301 25.8409 17.5068 26.5568C17.7835 27.2726 18.2049 27.9236 18.7448 28.469C19.3916 30.002 22.8885 37.8201 27.2665 38.6829L27.3527 38.7052C27.3709 38.7093 27.3882 38.7174 27.4064 38.7204C27.4528 38.727 27.4995 38.7304 27.5463 38.7306L27.5687 38.7336C27.6758 38.7314 27.7818 38.7122 27.883 38.6768C27.9127 38.666 27.9421 38.6542 27.9712 38.6413C28.0036 38.6301 28.0354 38.6173 28.0665 38.6028C28.0898 38.5886 28.103 38.5653 28.1263 38.5501C28.1924 38.5053 28.253 38.4529 28.3068 38.3939C28.3389 38.3605 28.3687 38.325 28.396 38.2875C28.4387 38.2221 28.4738 38.152 28.5004 38.0786C28.5191 38.0352 28.5347 37.9904 28.5471 37.9448C28.5531 37.9225 28.5663 37.9042 28.5704 37.8819L28.5572 37.5504L28.4497 37.2209C26.8729 34.3012 26.097 31.0161 26.2009 27.6994C26.2169 25.694 26.4708 23.6976 26.9573 21.752C33.4626 24.3266 40.7026 24.3364 47.2148 21.7793C47.5762 23.8816 47.7526 26.0115 47.742 28.1445L47.743 28.1577L47.741 28.1709C47.6998 30.6379 47.1924 33.0749 46.2455 35.3533C46.2394 35.3675 46.2425 35.3817 46.2364 35.3959C46.2128 35.4683 46.1975 35.5431 46.1908 35.6189C46.1606 35.7369 46.1666 35.8613 46.208 35.9758C46.2199 36.0413 46.2382 36.1055 46.2627 36.1674C46.2698 36.1837 46.2678 36.1999 46.2759 36.2151C46.3035 36.2554 46.334 36.2937 46.3672 36.3297C46.4886 36.4653 46.6277 36.584 46.7808 36.6825C46.795 36.6886 46.8113 36.6866 46.8254 36.6926C46.8944 36.7143 46.9654 36.7286 47.0374 36.7352C47.0833 36.748 47.13 36.7574 47.1773 36.7636C47.1935 36.7636 47.2077 36.7575 47.2239 36.7575C47.2536 36.7541 47.2834 36.7498 47.3131 36.7443C47.4069 36.7315 47.4983 36.7055 47.5848 36.6673C47.6031 36.6592 47.6234 36.6602 47.6416 36.6511C59.3024 30.6286 54.1254 15.7183 54.0656 15.549Z" fill="#A57939"/>
<path id="Vector_6" d="M48.0056 20.366C48.488 22.9468 48.7384 25.5657 48.7539 28.1912C48.5703 36.9938 43.145 44.019 36.6379 43.8831C30.1308 43.7473 25.0045 36.502 25.187 27.6994C25.1874 25.2074 25.5872 22.7315 26.3712 20.366C29.7739 21.89 33.4601 22.6779 37.1884 22.6779C40.9168 22.6779 44.603 21.89 48.0056 20.366Z" stroke="black" stroke-width="0.5" stroke-linecap="round" stroke-linejoin="round"/>
<path id="Vector_7" d="M47.1762 35.7497C58.183 30.0659 53.1176 15.9099 53.1176 15.9099C52.7427 15.077 52.1488 14.3614 51.3993 13.8393C50.6497 13.3172 49.7726 13.0083 48.8613 12.9453C47.243 12.8653 45.6492 13.3646 44.3657 14.3536C44.3657 14.3536 35.1272 2.08354 24.5057 13.4746C23.5645 14.5564 22.364 15.3814 21.0168 15.8723C19.6695 16.3632 18.2197 16.5038 16.8032 16.281C16.8032 16.281 17.5271 20.4258 20.0344 20.8719C20.0344 20.8719 16.0641 24.1204 19.6117 27.9154C19.6117 27.9154 23.3499 37.0363 27.5687 37.7187" stroke="black" stroke-width="0.5" stroke-linecap="round" stroke-linejoin="round"/>
<path id="Vector_8" d="M42.7547 30.1865C42.7547 30.5876 42.6358 30.9796 42.4129 31.3131C42.1901 31.6466 41.8734 31.9065 41.5029 32.0599C41.1324 32.2134 40.7247 32.2536 40.3313 32.1753C39.938 32.0971 39.5766 31.904 39.293 31.6204C39.0095 31.3368 38.8163 30.9755 38.7381 30.5821C38.6598 30.1888 38.7 29.781 38.8535 29.4105C39.007 29.04 39.2669 28.7233 39.6003 28.5005C39.9338 28.2777 40.3258 28.1587 40.7269 28.1587C41.2647 28.1587 41.7805 28.3724 42.1608 28.7527C42.541 29.1329 42.7547 29.6487 42.7547 30.1865ZM34.6436 30.1865C34.6436 30.5876 34.5246 30.9796 34.3018 31.3131C34.079 31.6466 33.7623 31.9065 33.3918 32.0599C33.0213 32.2134 32.6135 32.2536 32.2202 32.1753C31.8268 32.0971 31.4655 31.904 31.1819 31.6204C30.8983 31.3368 30.7052 30.9755 30.627 30.5821C30.5487 30.1888 30.5889 29.781 30.7424 29.4105C30.8958 29.04 31.1558 28.7233 31.4892 28.5005C31.8227 28.2777 32.2147 28.1587 32.6158 28.1587C33.1536 28.1587 33.6694 28.3724 34.0496 28.7527C34.4299 29.1329 34.6436 29.6487 34.6436 30.1865ZM36.6703 40.3274C35.4533 40.3157 34.256 40.0177 33.1755 39.4575C32.9349 39.3372 32.752 39.1262 32.6671 38.8711C32.5821 38.6159 32.6019 38.3374 32.7222 38.0969C32.8426 37.8563 33.0535 37.6735 33.3087 37.5885C33.5639 37.5035 33.8424 37.5233 34.0829 37.6437C34.8782 38.0723 35.7674 38.2967 36.6708 38.2967C37.5743 38.2967 38.4635 38.0723 39.2588 37.6437C39.378 37.5841 39.5077 37.5486 39.6406 37.5391C39.7735 37.5297 39.9069 37.5465 40.0333 37.5886C40.1597 37.6308 40.2766 37.6974 40.3772 37.7847C40.4779 37.872 40.5604 37.9782 40.6199 38.0974C40.6795 38.2165 40.715 38.3463 40.7245 38.4792C40.7339 38.6121 40.7171 38.7455 40.675 38.8719C40.6329 38.9983 40.5662 39.1152 40.4789 39.2158C40.3917 39.3165 40.2854 39.3989 40.1662 39.4585C39.0853 40.0185 37.8877 40.3162 36.6703 40.3274Z" fill="black"/>
<path id="Vector_9" d="M34.0464 50.4765C34.0464 50.4765 32.7628 56.8812 36.5 56.8812C40.2372 56.8812 38.9536 50.4765 38.9536 50.4765" stroke="black" stroke-width="0.5" stroke-linecap="round" stroke-linejoin="round"/>
<path id="Vector_10" d="M35.5956 56.9329L33.0264 60.8222C29.1655 58.9465 26.9938 46.9623 26.9938 46.9623L21.5634 54.3769L24.7267 56.3469L23.6642 59.6755L33.0984 60.8212L35.5956 56.9329ZM37.4044 56.9329L39.9736 60.8222C43.8345 58.9465 46.0062 46.9623 46.0062 46.9623L51.4366 54.3769L48.2733 56.3469L49.3358 59.6755L39.9016 60.8212L37.4044 56.9329Z" stroke="black" stroke-width="0.5" stroke-linecap="round" stroke-linejoin="round"/>
<path id="Vector_11" d="M16.355 60.7918C16.355 60.7918 14.2279 46.9623 26.9928 46.9623C30.3883 49.2263 33.2971 50.7908 36.5669 50.7837H36.4331C39.7029 50.7908 42.6117 49.2263 46.0072 46.9623C58.7721 46.9623 56.645 60.7918 56.645 60.7918" stroke="black" stroke-width="0.5" stroke-linecap="round" stroke-linejoin="round"/>
</g>
</svg>
